<svg xmlns="http://www.w3.org/2000/svg" viewBox="0 0 64 64"><title>Artboard 4</title><g id="Layer_2" data-name="Layer 2"><path d="M50.47,15.33H13.53a4,4,0,0,0-4,4V44.68a4,4,0,0,0,4,4h37a4,4,0,0,0,4-4V19.34A4,4,0,0,0,50.47,15.33Zm-24,18.4L14.66,46.51a.91.91,0,0,1-.65.29.85.85,0,0,1-.59-.24.87.87,0,0,1-.07-1.24L25.18,32.53a.88.88,0,0,1,1.24,0A.86.86,0,0,1,26.47,33.73ZM14.57,19.29a.86.86,0,0,1-.06-1.24A.87.87,0,0,1,15.75,18l16.17,14.4L48.23,17.77a.89.89,0,0,1,1.2,1.32L31.92,34.73ZM49.93,46.56a.85.85,0,0,1-.59.24.91.91,0,0,1-.65-.29L36.88,33.73a.86.86,0,0,1,0-1.24.88.88,0,0,1,1.24,0L50,45.32A.86.86,0,0,1,49.93,46.56Z" id="id_101" style="fill: rgb(255, 255, 255);"></path></g></svg>