<svg xmlns:dc="http://purl.org/dc/elements/1.1/" xmlns:cc="http://creativecommons.org/ns#" xmlns:rdf="http://www.w3.org/1999/02/22-rdf-syntax-ns#" xmlns:svg="http://www.w3.org/2000/svg" xmlns="http://www.w3.org/2000/svg" xmlns:sodipodi="http://sodipodi.sourceforge.net/DTD/sodipodi-0.dtd" xmlns:inkscape="http://www.inkscape.org/namespaces/inkscape" width="64" height="64" viewBox="0 0 16.933333 16.933334" version="1.1" id="svg8" inkscape:version="0.92.3 (2405546, 2018-03-11)" sodipodi:docname="18-Introduction.svg" inkscape:export-filename="/home/wanzabuyumna/@WANZ_DESIGN/NICON STUDIO MAGANG/Style Line/Style Line/Icon 8/Icon 8.png" inkscape:export-xdpi="96" inkscape:export-ydpi="96">
<defs id="defs2"></defs>
<sodipodi:namedview id="base" pagecolor="#ffffff" bordercolor="#959595" borderopacity="1" inkscape:pageopacity="0" inkscape:pageshadow="2" inkscape:zoom="5.6568543" inkscape:cx="35.276516" inkscape:cy="17.392992" inkscape:document-units="px" inkscape:current-layer="layer1" inkscape:document-rotation="0" showgrid="false" units="px" inkscape:window-width="1920" inkscape:window-height="1040" inkscape:window-x="0" inkscape:window-y="0" inkscape:window-maximized="1" inkscape:pagecheckerboard="0" inkscape:snap-global="false">
<inkscape:grid type="xygrid" id="grid858"></inkscape:grid>
</sodipodi:namedview>
<metadata id="metadata5">
<rdf:rdf>
<cc:work rdf:about="">
<dc:format>image/svg+xml</dc:format>
<dc:type rdf:resource="http://purl.org/dc/dcmitype/StillImage"></dc:type>
</cc:work>
</rdf:rdf>
</metadata>
<g inkscape:label="18-Introduction" inkscape:groupmode="layer" id="layer1">
<path style="color: rgb(0, 0, 0); font: medium sans-serif; font-feature-settings: normal; text-indent: 0px; text-align: start; text-decoration: none solid rgb(0, 0, 0); letter-spacing: normal; word-spacing: normal; text-transform: none; writing-mode: lr-tb; direction: ltr; text-orientation: mixed; dominant-baseline: auto; baseline-shift: baseline; text-anchor: start; white-space: normal; clip-rule: nonzero; display: inline; overflow: visible; visibility: visible; opacity: 1; isolation: auto; mix-blend-mode: normal; color-interpolation: srgb; color-interpolation-filters: linearrgb; vector-effect: none; fill: rgb(255, 255, 255); fill-opacity: 1; fill-rule: nonzero; stroke: none; stroke-width: 0.529167; stroke-linecap: round; stroke-linejoin: round; stroke-miterlimit: 4; stroke-dasharray: none; stroke-dashoffset: 0; stroke-opacity: 1; paint-order: stroke; color-rendering: auto; image-rendering: auto; shape-rendering: auto; text-rendering: auto;" d="m 5.8208367,0.53069131 c -0.2977301,1.1e-4 -0.5291702,0.23876001 -0.5291702,0.52917399 v 3.328527 L 5.8931767,3.7827364 c 0.0496,-0.0499 0.11719,-0.07796 0.1875898,-0.07803 h 3.4432002 c 0.29774,0 0.5296803,-0.2386711 0.5296803,-0.5291749 V 1.0598673 c 0,-0.29772399 -0.2360803,-0.53082399 -0.5296803,-0.53069999 z M 10.583337,1.8516102 v 1.3239691 c 0,0.588968 -0.47763,1.0588651 -1.0593703,1.0588651 h -2.64428 v 0.2640698 c 0,0.2905051 0.2319399,0.5296911 0.52968,0.5296911 h 3.4432003 c 0.0704,0 0.13799,0.02803 0.18759,0.07803 l 0.60151,0.6051399 v -3.330077 c 0,-0.290425 -0.23144,-0.529065 -0.52917,-0.5291751 z m -3.9687503,5.16e-4 c 0.1461198,10e-8 0.2645799,0.1184651 0.2645799,0.2645871 0,0.146123 -0.1184601,0.264588 -0.2645799,0.264588 -0.1461302,0 -0.26459,-0.118465 -0.26459,-0.264588 0,-0.146122 0.1184598,-0.264587 0.26459,-0.2645871 z m 1.0583299,0 c 0.1461201,0 0.2645801,0.118465 0.2645801,0.264587 0,0.146123 -0.11846,0.264588 -0.2645801,0.264588 -0.1461299,0 -0.2645799,-0.118465 -0.2645799,-0.264588 0,-0.146122 0.11845,-0.264587 0.2645799,-0.264587 z m 1.0583301,0 c 0.14613,0 0.26459,0.118465 0.26459,0.264587 0,0.146123 -0.11846,0.264588 -0.26459,0.264588 -0.1461201,1e-7 -0.2645801,-0.1184649 -0.2645801,-0.2645879 0,-0.146122 0.11846,-0.264587 0.2645801,-0.2645871 z m 7.6729203,3.4396332 -2.98638,1.2660911 1.36529,5.0979535 1.62109,-0.543127 z M 0.52916653,5.5563464 V 11.641852 L 1.8789565,12.343111 4.5134166,7.7805324 Z M 7.8847867,8.3484645 6.3184766,9.5049995 c -0.2387399,0.176103 -0.28298,0.5069275 -0.1131699,0.7379505 0.1647399,0.224134 0.4675298,0.255908 0.76533,0.09199 0.003,-0.0017 0.9302999,-0.5294988 1.4397001,-0.7792927 0.1243899,-0.06099 0.2908099,-0.1644909 0.4723199,-0.203091 0.20786,-0.04422 0.44534,-0.013179 0.72864,0.1503799 l 0.6904003,0.398944 c 0.2629,0.0521 0.52023,0.05307 0.74517,0.00209 0.22038,-0.05016 0.37117,-0.1461109 0.43357,-0.2558019 0.0461,-0.0855 0.13534,-0.1388821 0.23254,-0.139012 0.20611,-0.00111 0.33428,0.223716 0.22841,0.4004979 -0.15863,0.2788348 -0.4512,0.4322848 -0.75344,0.5048868 0.62491,0.360895 1.24436,0.718959 1.92081,1.10951 0.16217,0.108771 0.24983,0.215389 0.31523,0.31833 l 0.74104,-0.448554 -1.10019,-4.1078198 c -0.89397,0.1011071 -1.15855,-0.02997 -2.06499,-0.029984 -0.84641,0.00969 -1.8712103,0.205298 -3.1150603,1.0924412 z m -3.17138,0.1452128 -2.1688602,3.7543477 0.35708,0.438739 0.54209,-0.938974 c 0.29087,-0.503793 0.9421,-0.678443 1.4459101,-0.387579 0.3985199,0.230078 0.59666,0.69266 0.5105601,1.113126 0.1994599,-0.01429 0.4100698,0.0299 0.5999599,0.139529 0.3338,0.192722 0.52314,0.536177 0.5281401,0.897632 0.2390101,-0.04402 0.4887299,-0.0041 0.7141599,0.126092 0.27431,0.158374 0.4508799,0.416332 0.5079799,0.706427 0.2796601,-0.0958 0.5915001,-0.07117 0.8661001,0.0863 0.4590301,0.264434 0.9170601,0.529304 1.3756301,0.794278 0.2481103,0.143246 0.5735703,0.06457 0.7224303,-0.193272 0.14798,-0.256314 0.0556,-0.577031 -0.18913,-0.721413 -0.30654,-0.177033 -0.6130803,-0.354082 -0.9198403,-0.530725 -0.22839,-0.133792 -0.14743,-0.477833 0.1173,-0.494034 0.0534,-0.0033 0.10035,0.0076 0.14625,0.03514 0.3397303,0.196163 0.7566103,0.436831 1.1467003,0.661984 0.24827,0.143342 0.57357,0.0625 0.72243,-0.195339 0.14281,-0.247344 0.0663,-0.56181 -0.18138,-0.713662 -0.31064,-0.179703 -0.61884,-0.358947 -0.93018,-0.53796 -0.2282,-0.129871 -0.14316,-0.4759 0.11886,-0.493 0.0532,-0.0033 0.10096,0.0089 0.14676,0.03617 0.45794,0.264634 0.91668,0.526224 1.37511,0.792728 0.25785,0.148872 0.57773,0.05877 0.72295,-0.192756 0.14887,-0.257844 0.0552,-0.579221 -0.19378,-0.722963 -1.15022,-0.663169 -2.29984,-1.328201 -3.4509503,-1.9921506 -0.1911,-0.1103011 -0.30277,-0.1055849 -0.35347,-0.09198 -0.10712,0.022791 -0.1881,0.08297 -0.3498501,0.1622666 -0.4718698,0.231384 -1.4138699,0.76689 -1.4138699,0.76689 -0.4936201,0.271593 -1.10412,0.225797 -1.4490102,-0.2434 C 5.4354967,10.088123 5.5309266,9.4264394 6.0037667,9.0776345 l 0.3948099,-0.290943 c -0.2703899,0.0079 -0.5586201,0.014579 -0.79892,-0.00209 -0.1802601,-0.013121 -0.45594,-0.04245 -0.6464699,-0.1524513 z M 3.9020865,12.012377 3.2401067,13.159093 c -0.1488701,0.257834 -0.0538,0.578172 0.19431,0.721414 0.2482299,0.143312 0.5708099,0.06616 0.7213999,-0.190689 l 0.6630099,-1.14775 c 0.1488702,-0.257844 0.0585,-0.577818 -0.1937898,-0.72348 -0.0967,-0.0558 -0.2000502,-0.07625 -0.3012702,-0.06925 -0.1687,0.01116 -0.32858,0.101886 -0.42168,0.263038 z m 1.53376,0.988584 c -0.16871,0.01115 -0.3301299,0.102918 -0.4232299,0.264071 -0.2204,0.381765 -0.44074,0.76359 -0.6614599,1.145166 -0.1488702,0.257844 -0.0641,0.574093 0.19378,0.722963 0.25785,0.148867 0.5745999,0.06405 0.7234698,-0.193789 0.2203,-0.381755 0.4406802,-0.763431 0.6609501,-1.145166 0.1488601,-0.257844 0.0572,-0.578072 -0.1937901,-0.722964 -0.0967,-0.0559 -0.1984899,-0.07728 -0.29972,-0.07028 z m 0.8190701,1.287279 -0.5281401,0.915719 c -0.14883,0.25786 -0.0646,0.573581 0.1932702,0.722447 0.2578499,0.148865 0.5746099,0.06406 0.72347,-0.193789 0.1761998,-0.305062 0.3520599,-0.609555 0.5281399,-0.914686 0.1488601,-0.257844 0.0616,-0.575492 -0.1937899,-0.723229 -0.0967,-0.05605 -0.2016,-0.07857 -0.3028201,-0.07157 -0.16847,0.01114 -0.32673,0.104083 -0.42013,0.265106 z m 1.37511,0.794795 -0.26459,0.458376 c -0.1488599,0.257843 -0.063,0.572032 0.1948201,0.720897 0.25785,0.148865 0.57306,0.06612 0.7219199,-0.191723 l 0.2645899,-0.458376 c 0.1488602,-0.257843 0.0584,-0.577362 -0.1937898,-0.722964 -0.0967,-0.0559 -0.2016001,-0.07935 -0.3028201,-0.07235 -0.1635599,0.01081 -0.3271301,0.104986 -0.42013,0.266139 z m 1.5167001,0.263036 c 10e-4,0.181746 -0.0447,0.362435 -0.14159,0.530208 l -0.26407,0.457343 c 0.24781,0.143072 0.57325,0.06371 0.72192,-0.193789 0.14887,-0.257843 0.0586,-0.577558 -0.19327,-0.722964 z" id="path6383" inkscape:connector-curvature="0" sodipodi:nodetypes="cccccccccccccccccccccccccccccccccccccccccccccccccccccccccccccccccccccccccccccccccccccccccccccccccccccccccccccccccccccccccccccccccccccccccccc"></path>
</g>
</svg>